<mxfile host="app.diagrams.net" agent="Mozilla/5.0 (Macintosh; Intel Mac OS X 10_15_7) AppleWebKit/537.36 (KHTML, like Gecko) Chrome/131.0.0.0 Safari/537.36" version="26.0.2">
  <diagram name="Page-1" id="2ZHar-d_C5MXAACvJF2k">
    <mxGraphModel dx="1242" dy="785" grid="1" gridSize="10" guides="1" tooltips="1" connect="1" arrows="1" fold="1" page="1" pageScale="1" pageWidth="827" pageHeight="1169" math="0" shadow="0">
      <root>
        <mxCell id="0" />
        <mxCell id="1" parent="0" />
        <mxCell id="Gf4K81eUsogRGwWYUV_Y-4" style="edgeStyle=orthogonalEdgeStyle;rounded=0;orthogonalLoop=1;jettySize=auto;html=1;exitX=0.5;exitY=1;exitDx=0;exitDy=0;" edge="1" parent="1" source="Gf4K81eUsogRGwWYUV_Y-2" target="Gf4K81eUsogRGwWYUV_Y-3">
          <mxGeometry relative="1" as="geometry" />
        </mxCell>
        <mxCell id="Gf4K81eUsogRGwWYUV_Y-6" style="edgeStyle=orthogonalEdgeStyle;rounded=0;orthogonalLoop=1;jettySize=auto;html=1;entryX=0.5;entryY=0;entryDx=0;entryDy=0;" edge="1" parent="1" source="Gf4K81eUsogRGwWYUV_Y-2" target="Gf4K81eUsogRGwWYUV_Y-5">
          <mxGeometry relative="1" as="geometry">
            <Array as="points">
              <mxPoint x="400" y="120" />
              <mxPoint x="680" y="120" />
            </Array>
          </mxGeometry>
        </mxCell>
        <mxCell id="Gf4K81eUsogRGwWYUV_Y-10" style="edgeStyle=orthogonalEdgeStyle;rounded=0;orthogonalLoop=1;jettySize=auto;html=1;exitX=0.5;exitY=1;exitDx=0;exitDy=0;entryX=0.5;entryY=0;entryDx=0;entryDy=0;" edge="1" parent="1" source="Gf4K81eUsogRGwWYUV_Y-2" target="Gf4K81eUsogRGwWYUV_Y-9">
          <mxGeometry relative="1" as="geometry" />
        </mxCell>
        <mxCell id="Gf4K81eUsogRGwWYUV_Y-16" style="edgeStyle=orthogonalEdgeStyle;rounded=0;orthogonalLoop=1;jettySize=auto;html=1;exitX=0.5;exitY=1;exitDx=0;exitDy=0;" edge="1" parent="1" source="Gf4K81eUsogRGwWYUV_Y-2" target="Gf4K81eUsogRGwWYUV_Y-12">
          <mxGeometry relative="1" as="geometry" />
        </mxCell>
        <mxCell id="Gf4K81eUsogRGwWYUV_Y-2" value="Protagonist" style="rounded=1;whiteSpace=wrap;html=1;" vertex="1" parent="1">
          <mxGeometry x="340" y="20" width="120" height="60" as="geometry" />
        </mxCell>
        <mxCell id="Gf4K81eUsogRGwWYUV_Y-8" style="edgeStyle=orthogonalEdgeStyle;rounded=0;orthogonalLoop=1;jettySize=auto;html=1;exitX=0.5;exitY=1;exitDx=0;exitDy=0;entryX=0.5;entryY=0;entryDx=0;entryDy=0;" edge="1" parent="1" source="Gf4K81eUsogRGwWYUV_Y-3" target="Gf4K81eUsogRGwWYUV_Y-7">
          <mxGeometry relative="1" as="geometry" />
        </mxCell>
        <mxCell id="Gf4K81eUsogRGwWYUV_Y-3" value="Iron mine" style="shape=hexagon;perimeter=hexagonPerimeter2;whiteSpace=wrap;html=1;fixedSize=1;" vertex="1" parent="1">
          <mxGeometry x="60" y="160" width="120" height="80" as="geometry" />
        </mxCell>
        <mxCell id="Gf4K81eUsogRGwWYUV_Y-5" value="Barracks" style="shape=hexagon;perimeter=hexagonPerimeter2;whiteSpace=wrap;html=1;fixedSize=1;" vertex="1" parent="1">
          <mxGeometry x="620" y="160" width="120" height="80" as="geometry" />
        </mxCell>
        <mxCell id="Gf4K81eUsogRGwWYUV_Y-11" style="edgeStyle=orthogonalEdgeStyle;rounded=0;orthogonalLoop=1;jettySize=auto;html=1;exitX=1;exitY=0.5;exitDx=0;exitDy=0;entryX=0;entryY=0.5;entryDx=0;entryDy=0;" edge="1" parent="1" source="Gf4K81eUsogRGwWYUV_Y-7" target="Gf4K81eUsogRGwWYUV_Y-9">
          <mxGeometry relative="1" as="geometry" />
        </mxCell>
        <mxCell id="Gf4K81eUsogRGwWYUV_Y-7" value="Iron Ore" style="rounded=1;whiteSpace=wrap;html=1;" vertex="1" parent="1">
          <mxGeometry x="60" y="280" width="120" height="60" as="geometry" />
        </mxCell>
        <mxCell id="Gf4K81eUsogRGwWYUV_Y-14" style="edgeStyle=orthogonalEdgeStyle;rounded=0;orthogonalLoop=1;jettySize=auto;html=1;exitX=0.5;exitY=1;exitDx=0;exitDy=0;entryX=0.5;entryY=0;entryDx=0;entryDy=0;" edge="1" parent="1" source="Gf4K81eUsogRGwWYUV_Y-9" target="Gf4K81eUsogRGwWYUV_Y-13">
          <mxGeometry relative="1" as="geometry" />
        </mxCell>
        <mxCell id="Gf4K81eUsogRGwWYUV_Y-9" value="Foundry" style="shape=hexagon;perimeter=hexagonPerimeter2;whiteSpace=wrap;html=1;fixedSize=1;" vertex="1" parent="1">
          <mxGeometry x="240" y="160" width="120" height="80" as="geometry" />
        </mxCell>
        <mxCell id="Gf4K81eUsogRGwWYUV_Y-18" style="edgeStyle=orthogonalEdgeStyle;rounded=0;orthogonalLoop=1;jettySize=auto;html=1;exitX=0.5;exitY=1;exitDx=0;exitDy=0;entryX=0.5;entryY=0;entryDx=0;entryDy=0;" edge="1" parent="1" source="Gf4K81eUsogRGwWYUV_Y-12" target="Gf4K81eUsogRGwWYUV_Y-17">
          <mxGeometry relative="1" as="geometry" />
        </mxCell>
        <mxCell id="Gf4K81eUsogRGwWYUV_Y-12" value="Metal Workshop" style="shape=hexagon;perimeter=hexagonPerimeter2;whiteSpace=wrap;html=1;fixedSize=1;" vertex="1" parent="1">
          <mxGeometry x="440" y="160" width="120" height="80" as="geometry" />
        </mxCell>
        <mxCell id="Gf4K81eUsogRGwWYUV_Y-15" style="edgeStyle=orthogonalEdgeStyle;rounded=0;orthogonalLoop=1;jettySize=auto;html=1;entryX=0;entryY=0.5;entryDx=0;entryDy=0;" edge="1" parent="1" source="Gf4K81eUsogRGwWYUV_Y-13" target="Gf4K81eUsogRGwWYUV_Y-12">
          <mxGeometry relative="1" as="geometry" />
        </mxCell>
        <mxCell id="Gf4K81eUsogRGwWYUV_Y-13" value="Iron Bar" style="rounded=1;whiteSpace=wrap;html=1;" vertex="1" parent="1">
          <mxGeometry x="240" y="280" width="120" height="60" as="geometry" />
        </mxCell>
        <mxCell id="Gf4K81eUsogRGwWYUV_Y-17" value="Iron Part" style="rounded=1;whiteSpace=wrap;html=1;" vertex="1" parent="1">
          <mxGeometry x="440" y="280" width="120" height="60" as="geometry" />
        </mxCell>
        <mxCell id="Gf4K81eUsogRGwWYUV_Y-19" value="" style="shape=hexagon;perimeter=hexagonPerimeter2;whiteSpace=wrap;html=1;fixedSize=1;" vertex="1" parent="1">
          <mxGeometry x="440" y="410" width="120" height="80" as="geometry" />
        </mxCell>
      </root>
    </mxGraphModel>
  </diagram>
</mxfile>
